<?xml version="1.0" encoding="utf-8"?>
<!-- Generator: Adobe Illustrator 19.2.0, SVG Export Plug-In . SVG Version: 6.00 Build 0)  -->
<svg xmlns="http://www.w3.org/2000/svg" xmlns:xlink="http://www.w3.org/1999/xlink" version="1.1" id="phoneanaylsis" x="0px" y="0px" viewBox="0 0 223.3205 195.8237" enable-background="new 0 0 223.3205 195.8237" xml:space="preserve" width="512" height="512">
<g>
	<path fill="#D0E8FF" d="M79.5488,78.6934l-39.3711,39.1094l-5.6367-5.6758l47.9922-47.6719l9.6172,24.3809L128,55.0254V12.0195   C128,9.8027,126.2012,8,123.9922,8H12.0078C9.7988,8,8,9.8027,8,12.0195V136h120V66.0215l-38.9551,36.7402L79.5488,78.6934z"/>
	<circle fill="#D0E8FF" cx="68" cy="160" r="4"/>
	<path fill="#5CB0FF" d="M8,176h120v-32H8V176z M68,148c6.6172,0,12,5.3828,12,12s-5.3828,12-12,12s-12-5.3828-12-12   S61.3828,148,68,148z"/>
	<polygon fill="#D0E8FF" points="200.4395,44.6484 212.4688,16.8945 183.0488,23.9219  "/>
	<path fill="#1C71DA" d="M68,172c6.6172,0,12-5.3828,12-12s-5.3828-12-12-12s-12,5.3828-12,12S61.3828,172,68,172z M68,156   c2.2051,0,4,1.7949,4,4s-1.7949,4-4,4s-4-1.7949-4-4S65.7949,156,68,156z"/>
	<path fill="#1C71DA" d="M222.3848,8.5742c-0.9746-1.1641-2.5273-1.6758-3.9941-1.3203l-43.4961,10.3906   c-1.3477,0.3223-2.4336,1.3203-2.8691,2.6367c-0.4336,1.3145-0.1562,2.7637,0.7344,3.8242l11.0051,13.1162l-27.4934,22.7666   l-7.5918-24.4668L136,47.4805V12.0195C136,5.3926,130.6133,0,123.9922,0H12.0078C5.3867,0,0,5.3926,0,12.0195V136v48h136v-48   V58.4766l8.8398-8.3379l7.334,23.6309l36.7324-30.4209l9.5645,11.3994c0.7656,0.9141,1.8926,1.4297,3.0645,1.4297   c0.1914,0,0.3828-0.0137,0.5762-0.041c1.3711-0.2012,2.543-1.0957,3.0938-2.3691l17.7852-41.0332   C223.5938,11.3457,223.3574,9.7344,222.3848,8.5742z M128,176H8v-32h120V176z M128,136H8V12.0195C8,9.8027,9.7988,8,12.0078,8   h111.9844C126.2012,8,128,9.8027,128,12.0195v43.0059L92.1504,88.8359l-9.6172-24.3809L34.541,112.127l5.6367,5.6758   l39.3711-39.1094l9.4961,24.0684L128,66.0215V136z M200.4395,44.6484l-17.3906-20.7266l29.4199-7.0273L200.4395,44.6484z"/>
</g>
<path fill="#FF5D5D" d="M188.2524,195.8237c-1.0239,0-2.0474-0.3906-2.8286-1.1714c-1.562-1.5625-1.562-4.0947,0-5.6572  l14.1421-14.1421c1.5625-1.5615,4.0947-1.5615,5.6572,0c1.562,1.5625,1.562,4.0947,0,5.6572l-14.1421,14.1421  C190.2998,195.4331,189.2764,195.8237,188.2524,195.8237z"/>
<path fill="#FF5D5D" d="M202.3945,195.8223c-1.0239,0-2.0474-0.3906-2.8286-1.1714l-14.1421-14.1426  c-1.562-1.5625-1.562-4.0952,0-5.6572c1.5635-1.562,4.0957-1.561,5.6572,0l14.1421,14.1426c1.562,1.5625,1.562,4.0952,0,5.6572  C204.4419,195.4316,203.418,195.8223,202.3945,195.8223z"/>
<path fill="#00D40B" d="M98.2524,51.8242c-7.7197,0-14-6.2803-14-14s6.2803-14,14-14s14,6.2803,14,14  S105.9722,51.8242,98.2524,51.8242z M98.2524,31.8242c-3.3086,0-6,2.6914-6,6s2.6914,6,6,6s6-2.6914,6-6  S101.561,31.8242,98.2524,31.8242z"/>
<path fill="#FFC504" d="M163.5659,126.4492c-1.0239,0-2.0474-0.3906-2.8286-1.1714l-11.3135-11.3135  c-1.562-1.5625-1.562-4.0947,0-5.6572l11.3135-11.3135c1.5625-1.5615,4.0952-1.5615,5.6567,0l11.314,11.3135  c0.7505,0.7505,1.1719,1.7676,1.1719,2.8286s-0.4214,2.0781-1.1719,2.8286l-11.314,11.3135  C165.6133,126.0586,164.5894,126.4492,163.5659,126.4492z M157.9092,111.1357l5.6567,5.6567l5.6572-5.6567l-5.6572-5.6567  L157.9092,111.1357z"/>
</svg>
